<?xml version="1.0" encoding="utf-8"?>
<!-- Generator: Adobe Illustrator 24.0.0, SVG Export Plug-In . SVG Version: 6.00 Build 0)  -->
<svg version="1.1" id="Layer_1" xmlns="http://www.w3.org/2000/svg" xmlns:xlink="http://www.w3.org/1999/xlink" x="0px" y="0px"
	 viewBox="0 0 13.9 15" style="enable-background:new 0 0 13.9 15;" xml:space="preserve">
<style type="text/css">
	.st0{fill:#0033DC;}
</style>
<title>icon_clip</title>
<path class="st0" d="M6.8,3.6C6,2.6,4.6,2.4,3.6,3.2S2.4,5.4,3.1,6.4c0.1,0.2,0.3,0.3,0.4,0.4l4.3,4.3c0.2,0.2,0.5,0.2,0.7,0
	c0.2-0.2,0.2-0.5,0-0.7L4.3,6.1c-0.5-0.5-0.9-1.3-0.2-2c0.6-0.6,1.4-0.3,2,0.2l5,5c1.9,1.9,2.4,2.8,1.2,3.9c-1.1,1.1-2.4,0.9-4.2-1
	L2.4,6.6c-1.2-1.2-2-3.1-0.5-4.7c1.9-1.9,4,0,4.6,0.6l5.1,5.1c0.2,0.2,0.5,0.2,0.7,0c0.2-0.2,0.2-0.5,0-0.7L7.2,1.7
	C5.2-0.3,2.9-0.6,1.2,1.1c-1.7,1.7-1.5,4.2,0.5,6.2L7.3,13c0.6,0.6,2,2,3.5,2c0.8,0,1.6-0.4,2.2-1c2.1-2.1,0.2-4-1.2-5.4L6.8,3.6z"
	/>
</svg>
